<?xml version="1.0" standalone="no"?>
<!DOCTYPE svg PUBLIC "-//W3C//DTD SVG 20010904//EN"
 "http://www.w3.org/TR/2001/REC-SVG-20010904/DTD/svg10.dtd">
<svg version="1.0" xmlns="http://www.w3.org/2000/svg"
 width="600.000000pt" height="600.000000pt" viewBox="0 0 600.000000 600.000000"
 preserveAspectRatio="xMidYMid meet">
<metadata>Created by Svg.la</metadata>
<g transform="translate(0.000000,600.000000) scale(0.100000,-0.100000)"
fill="#000000" stroke="none">
<path d="M0 3000 l0 -3000 3000 0 3000 0 0 3000 0 3000 -3000 0 -3000 0 0
-3000z m3188 874 c153 -32 288 -98 410 -202 106 -90 212 -250 212 -319 0 -43
-45 -93 -84 -93 -14 0 -81 29 -148 65 -223 117 -417 165 -662 165 -190 0 -356
-31 -514 -95 -77 -31 -97 -31 -127 0 -47 46 -24 112 77 221 124 132 278 218
468 260 81 18 277 17 368 -2z m-113 -569 c64 -9 160 -29 213 -46 112 -36 278
-118 322 -159 34 -32 40 -73 13 -102 -24 -26 -58 -22 -127 16 -95 53 -231 103
-346 127 -85 19 -136 23 -270 23 -182 0 -247 -10 -393 -55 -92 -30 -99 -30
-122 -15 -31 20 -34 74 -7 99 27 25 131 65 225 87 173 41 313 48 492 25z m55
-294 c209 -43 410 -139 410 -195 0 -28 -18 -46 -46 -46 -12 0 -64 20 -115 44
-262 124 -611 150 -883 66 -84 -27 -116 -18 -116 30 0 23 7 35 30 49 33 20
177 58 273 71 98 14 339 4 447 -19z m-78 -226 c117 -17 257 -62 353 -113 62
-33 70 -41 73 -69 5 -48 -26 -52 -97 -14 -78 41 -218 87 -325 106 -164 28
-449 13 -555 -31 -18 -8 -43 -14 -55 -14 -44 0 -61 44 -28 73 20 18 141 53
228 66 96 14 302 12 406 -4z"/>
</g>
</svg>
